# xmcd
#
# Track frame offsets:
#	150
#	32080
#	48316
#	60505
#	79249
#	94632
#	110421
#	122930
#	141957
#	173887
#	190096
#	202277
#	221099
#	236488
#	252274
#	264813
#	295176
#
# Disc length: 3950 seconds
#
# Revision: 0
# Processed by: cddbd v1.5.2PL0 Copyright (c) Steve Scherf et al.
# Submitted via: audiograbber 1.83.01
#
DISCID=fa0f6c11
DTITLE=Performers Choice - 7764
DYEAR=2004
DGENRE=Karaoke
TTITLE0=Friends in Low Places (Live Version)
TTITLE1=Achy Breaky Heart
TTITLE2=Chattahoochee
TTITLE3=I Love This Bar
TTITLE4=I Like It, I Love It
TTITLE5=Boot Scootin' Boogie
TTITLE6=Take This Job and Shove It
TTITLE7=It's Five O'Clock Somewhere
TTITLE8=Friends in Low Places (Live Version) - Vocals
TTITLE9=Achy Breaky Heart - Vocals
TTITLE10=Chattahoochee - Vocals
TTITLE11=I Love This Bar - Vocals
TTITLE12=I Like It, I Love It - Vocals
TTITLE13=Boot Scootin' Boogie - Vocals
TTITLE14=Take This Job and Shove It - Vocals
TTITLE15=It's Five O'Clock Somewhere - Vocals
TTITLE16=Data Track
EXTD=
EXTT0=
EXTT1=
EXTT2=
EXTT3=
EXTT4=
EXTT5=
EXTT6=
EXTT7=
EXTT8=
EXTT9=
EXTT10=
EXTT11=
EXTT12=
EXTT13=
EXTT14=
EXTT15=
EXTT16=
PLAYORDER=
